<?xml version="1.0" standalone="no"?><!DOCTYPE svg PUBLIC "-//W3C//DTD SVG 1.1//EN" "http://www.w3.org/Graphics/SVG/1.1/DTD/svg11.dtd"><svg height="400" legacy-metrics="false" node-id="1" sillyvg="true" template-height="400" template-width="400" version="1.1" viewBox="0 0 400 400" width="400" xmlns="http://www.w3.org/2000/svg" xmlns:xlink="http://www.w3.org/1999/xlink"><defs node-id="83"><linearGradient gradientUnits="userSpaceOnUse" id="未命名的渐变_33" node-id="5" x1="211.26" x2="196.64" y1="135.09" y2="382.5"><stop offset="0" stop-color="#f0eff2"></stop><stop offset="0.01" stop-color="#edecef" stop-opacity="0.95"></stop><stop offset="0.08" stop-color="#e1e0e4" stop-opacity="0.75"></stop><stop offset="0.16" stop-color="#d7d6da" stop-opacity="0.57"></stop><stop offset="0.23" stop-color="#cecdd1" stop-opacity="0.42"></stop><stop offset="0.32" stop-color="#c6c5ca" stop-opacity="0.29"></stop><stop offset="0.4" stop-color="#c0bfc4" stop-opacity="0.18"></stop><stop offset="0.5" stop-color="#bbbac0" stop-opacity="0.1"></stop><stop offset="0.62" stop-color="#b8b7bc" stop-opacity="0.04"></stop><stop offset="0.75" stop-color="#b6b5bb" stop-opacity="0.01"></stop><stop offset="1" stop-color="#b5b4ba" stop-opacity="0"></stop></linearGradient><linearGradient gradientUnits="userSpaceOnUse" id="未命名的渐变_37" node-id="17" x1="305.95" x2="306.42" y1="144.31" y2="158.2"><stop offset="0" stop-color="#f0eff2"></stop><stop offset="1" stop-color="#c6c5cc" stop-opacity="0"></stop></linearGradient><linearGradient gradientUnits="userSpaceOnUse" id="未命名的渐变_37-2" node-id="20" x1="319.37" x2="319.55" y1="155.07" y2="160.67"><stop offset="0" stop-color="#f0eff2"></stop><stop offset="1" stop-color="#c6c5cc" stop-opacity="0"></stop></linearGradient><linearGradient gradientUnits="userSpaceOnUse" id="未命名的渐变_37-3" node-id="21" x1="294.87" x2="295.03" y1="155.4" y2="160.04"><stop offset="0" stop-color="#f0eff2"></stop><stop offset="1" stop-color="#c6c5cc" stop-opacity="0"></stop></linearGradient><linearGradient gradientUnits="userSpaceOnUse" id="未命名的渐变_37-4" node-id="22" x1="96.12" x2="96.99" y1="121.27" y2="147.21"><stop offset="0" stop-color="#f0eff2"></stop><stop offset="1" stop-color="#c6c5cc" stop-opacity="0"></stop></linearGradient><linearGradient gradientUnits="userSpaceOnUse" id="未命名的渐变_37-5" node-id="23" x1="113.62" x2="113.97" y1="139.21" y2="149.67"><stop offset="0" stop-color="#f0eff2"></stop><stop offset="1" stop-color="#c6c5cc" stop-opacity="0"></stop></linearGradient><linearGradient gradientUnits="userSpaceOnUse" id="未命名的渐变_13" node-id="24" x1="241.01" x2="225.91" y1="-3.4" y2="101.29"><stop offset="0" stop-color="#f0eff2"></stop><stop offset="1" stop-color="#c6c5cc"></stop></linearGradient><linearGradient gradientUnits="userSpaceOnUse" id="未命名的渐变_13-2" node-id="27" x1="234.78" x2="226.39" y1="73.41" y2="182.46"><stop offset="0" stop-color="#f0eff2"></stop><stop offset="1" stop-color="#c6c5cc"></stop></linearGradient><linearGradient gradientUnits="userSpaceOnUse" id="未命名的渐变_13-3" node-id="28" x1="126.35" x2="160.91" y1="87.77" y2="125.69"><stop offset="0" stop-color="#f0eff2"></stop><stop offset="1" stop-color="#c6c5cc"></stop></linearGradient><linearGradient gradientUnits="userSpaceOnUse" id="未命名的渐变_13-4" node-id="29" x1="57.45" x2="181.94" y1="128.73" y2="145.17"><stop offset="0" stop-color="#f0eff2"></stop><stop offset="1" stop-color="#c6c5cc"></stop></linearGradient><linearGradient gradientUnits="userSpaceOnUse" id="未命名的渐变_13-5" node-id="30" x1="322.97" x2="191.43" y1="71.25" y2="129.97"><stop offset="0" stop-color="#f0eff2"></stop><stop offset="1" stop-color="#c6c5cc"></stop></linearGradient><linearGradient gradientUnits="userSpaceOnUse" id="未命名的渐变_13-6" node-id="31" x1="162.29" x2="136.79" y1="55.39" y2="138.27"><stop offset="0" stop-color="#f0eff2"></stop><stop offset="1" stop-color="#c6c5cc"></stop></linearGradient><linearGradient gradientUnits="userSpaceOnUse" id="未命名的渐变_13-7" node-id="32" x1="281.45" x2="252.93" y1="164.14" y2="193.25"><stop offset="0" stop-color="#f0eff2"></stop><stop offset="1" stop-color="#c6c5cc"></stop></linearGradient><linearGradient gradientUnits="userSpaceOnUse" id="未命名的渐变_13-8" node-id="33" x1="269.24" x2="268.71" y1="180.88" y2="182.39"><stop offset="0" stop-color="#f0eff2"></stop><stop offset="1" stop-color="#c6c5cc"></stop></linearGradient><linearGradient gradientUnits="userSpaceOnUse" id="未命名的渐变_13-9" node-id="34" x1="268.36" x2="267.15" y1="191.35" y2="191.12"><stop offset="0" stop-color="#f0eff2"></stop><stop offset="1" stop-color="#c6c5cc"></stop></linearGradient><linearGradient gradientUnits="userSpaceOnUse" id="未命名的渐变_13-10" node-id="35" x1="261.76" x2="244.2" y1="182.83" y2="200.76"><stop offset="0" stop-color="#f0eff2"></stop><stop offset="1" stop-color="#c6c5cc"></stop></linearGradient><linearGradient gradientUnits="userSpaceOnUse" id="未命名的渐变_13-11" node-id="36" x1="254.25" x2="253.92" y1="193.14" y2="194.07"><stop offset="0" stop-color="#f0eff2"></stop><stop offset="1" stop-color="#c6c5cc"></stop></linearGradient><linearGradient gradientUnits="userSpaceOnUse" id="未命名的渐变_13-12" node-id="37" x1="253.7" x2="252.96" y1="199.59" y2="199.45"><stop offset="0" stop-color="#f0eff2"></stop><stop offset="1" stop-color="#c6c5cc"></stop></linearGradient><linearGradient gradientUnits="userSpaceOnUse" id="未命名的渐变_13-13" node-id="38" x1="355.29" x2="337.73" y1="240.7" y2="258.63"><stop offset="0" stop-color="#f0eff2"></stop><stop offset="1" stop-color="#c6c5cc"></stop></linearGradient><linearGradient gradientUnits="userSpaceOnUse" id="未命名的渐变_13-14" node-id="39" x1="347.77" x2="347.44" y1="251.02" y2="251.94"><stop offset="0" stop-color="#f0eff2"></stop><stop offset="1" stop-color="#c6c5cc"></stop></linearGradient><linearGradient gradientUnits="userSpaceOnUse" id="未命名的渐变_13-15" node-id="40" x1="347.23" x2="346.48" y1="257.46" y2="257.32"><stop offset="0" stop-color="#f0eff2"></stop><stop offset="1" stop-color="#c6c5cc"></stop></linearGradient><linearGradient gradientUnits="userSpaceOnUse" id="未命名的渐变_13-16" node-id="41" x1="74.5" x2="60.76" y1="206.36" y2="220.39"><stop offset="0" stop-color="#f0eff2"></stop><stop offset="1" stop-color="#c6c5cc"></stop></linearGradient><linearGradient gradientUnits="userSpaceOnUse" id="未命名的渐变_13-17" node-id="42" x1="68.62" x2="68.36" y1="214.43" y2="215.16"><stop offset="0" stop-color="#f0eff2"></stop><stop offset="1" stop-color="#c6c5cc"></stop></linearGradient><linearGradient gradientUnits="userSpaceOnUse" id="未命名的渐变_13-18" node-id="43" x1="68.19" x2="67.61" y1="219.47" y2="219.36"><stop offset="0" stop-color="#f0eff2"></stop><stop offset="1" stop-color="#c6c5cc"></stop></linearGradient><linearGradient gradientUnits="userSpaceOnUse" id="未命名的渐变_13-19" node-id="44" x1="64.97" x2="44.71" y1="192.07" y2="212.76"><stop offset="0" stop-color="#f0eff2"></stop><stop offset="1" stop-color="#c6c5cc"></stop></linearGradient><linearGradient gradientUnits="userSpaceOnUse" id="未命名的渐变_13-20" node-id="45" x1="56.3" x2="55.92" y1="203.97" y2="205.04"><stop offset="0" stop-color="#f0eff2"></stop><stop offset="1" stop-color="#c6c5cc"></stop></linearGradient><linearGradient gradientUnits="userSpaceOnUse" id="未命名的渐变_13-21" node-id="46" x1="55.67" x2="54.81" y1="211.4" y2="211.24"><stop offset="0" stop-color="#f0eff2"></stop><stop offset="1" stop-color="#c6c5cc"></stop></linearGradient></defs><path d="M 2.38 326.11 C 3.63 225.77 91.63 144.79 200.00 144.79 C 309.15 144.79 397.63 226.94 397.63 328.28" fill="url(#未命名的渐变_33)" fill-rule="nonzero" node-id="266" stroke="none" target-height="183.49" target-width="395.25" target-x="2.38" target-y="144.79"></path><g node-id="338"><path d="M 237.84 256.46 C 237.84 266.38 229.18 274.43 218.49 274.43 C 207.80 274.43 199.14 266.38 199.14 256.46 C 199.14 246.54 207.80 238.49 218.49 238.49 C 229.18 238.49 237.84 246.54 237.84 256.46 Z" fill="#c4c4c4" fill-opacity="0.6" fill-rule="nonzero" group-id="1" node-id="270" stroke-linecap="butt" stroke-opacity="0.6" stroke-width="1" target-height="35.939987" target-width="38.699997" target-x="199.14" target-y="238.49"></path></g><path d="M 282.19 175.78 C 282.19 182.47 275.58 187.90 267.42 187.90 C 259.26 187.90 252.65 182.47 252.65 175.78 C 252.65 169.09 259.26 163.66 267.42 163.66 C 275.58 163.66 282.19 169.09 282.19 175.78 Z" fill="#cecece" fill-rule="nonzero" node-id="273" stroke="none" target-height="24.23999" target-width="29.540009" target-x="252.65" target-y="163.66"></path><path d="M 174.80 159.51 C 181.53 159.51 186.99 154.70 186.99 148.77 C 186.99 147.56 186.75 146.36 186.30 145.24 C 178.37 145.74 170.47 146.69 162.65 148.08 C 162.65 148.31 162.65 148.54 162.65 148.77 C 162.61 154.70 168.07 159.51 174.80 159.51 Z" fill="#cecece" fill-rule="nonzero" node-id="275" stroke="none" target-height="14.269989" target-width="24.340012" target-x="162.65" target-y="145.24"></path><path d="M 103.24 199.34 C 119.12 199.34 131.99 187.34 131.99 172.65 C 131.98 167.31 130.27 162.11 127.12 157.80 C 109.31 164.04 92.46 172.75 77.07 183.66 C 81.59 192.90 91.60 199.34 103.24 199.34 Z" fill="#cecece" fill-opacity="0.3" fill-rule="nonzero" group-id="2" node-id="279" stroke-linecap="butt" stroke-opacity="0.3" stroke-width="1" target-height="41.539993" target-width="54.920006" target-x="77.07" target-y="157.8"></path><path d="M 113.84 256.46 C 113.84 263.81 107.42 269.77 99.51 269.77 C 91.60 269.77 85.18 263.81 85.18 256.46 C 85.18 249.11 91.60 243.15 99.51 243.15 C 107.42 243.15 113.84 249.11 113.84 256.46 Z" fill="#eaeaea" fill-rule="nonzero" node-id="282" stroke="none" target-height="26.619995" target-width="28.659996" target-x="85.18" target-y="243.15"></path><path d="M 299.80 274.78 C 299.80 279.18 295.96 282.74 291.22 282.74 C 286.48 282.74 282.64 279.18 282.64 274.78 C 282.64 270.38 286.48 266.82 291.22 266.82 C 295.96 266.82 299.80 270.38 299.80 274.78 Z" fill="#eaeaea" fill-rule="nonzero" node-id="284" stroke="none" target-height="15.919983" target-width="17.159973" target-x="282.64" target-y="266.82"></path><path d="M 311.73 150.71 C 311.31 150.71 310.89 150.77 310.48 150.87 L 310.48 150.71 C 310.56 148.83 309.61 147.05 307.99 146.08 C 306.37 145.11 304.34 145.11 302.72 146.08 C 301.10 147.05 300.15 148.83 300.23 150.71 L 300.23 150.71 C 298.19 151.00 296.52 152.49 296.00 154.49 C 295.48 156.49 296.21 158.60 297.86 159.85 C 299.50 161.10 301.73 161.24 303.52 160.21 C 305.15 160.95 307.04 160.79 308.52 159.80 C 310.28 161.19 312.74 161.27 314.59 160.00 C 316.44 158.73 317.24 156.41 316.58 154.27 C 315.92 152.13 313.94 150.66 311.70 150.66 Z" fill="url(#未命名的渐变_37)" fill-rule="nonzero" node-id="286" stroke="none" target-height="15.543594" target-width="20.969147" target-x="295.84073" target-y="145.35356"></path><path d="M 321.70 157.65 C 321.53 157.65 321.36 157.68 321.19 157.72 L 321.19 157.65 C 321.11 156.57 320.21 155.72 319.12 155.72 C 318.04 155.72 317.14 156.57 317.06 157.65 L 317.06 157.65 C 315.93 157.73 315.07 158.72 315.15 159.85 C 315.23 160.98 316.22 161.84 317.35 161.76 C 317.93 161.42 318.64 161.39 319.25 161.67 C 320.00 161.16 320.99 161.19 321.70 161.76 C 322.78 161.68 323.63 160.78 323.63 159.69 C 323.63 158.61 322.78 157.71 321.70 157.63 Z" fill="url(#未命名的渐变_37-2)" fill-rule="nonzero" node-id="288" stroke="none" target-height="6.036209" target-width="8.476227" target-x="315.15" target-y="155.72379"></path><path d="M 296.80 157.54 C 296.66 157.54 296.52 157.56 296.38 157.59 L 296.38 157.54 C 296.38 156.60 295.61 155.83 294.67 155.83 C 293.73 155.83 292.96 156.60 292.96 157.54 L 292.96 157.54 C 292.27 157.63 291.70 158.13 291.52 158.80 C 291.34 159.47 291.59 160.19 292.15 160.61 C 292.71 161.02 293.46 161.06 294.06 160.70 C 294.28 160.81 294.53 160.86 294.78 160.86 C 295.13 160.87 295.48 160.76 295.78 160.57 C 296.37 161.04 297.19 161.06 297.81 160.64 C 298.43 160.22 298.70 159.44 298.48 158.72 C 298.25 158.01 297.59 157.52 296.84 157.52 Z" fill="url(#未命名的渐变_37-3)" fill-rule="nonzero" node-id="290" stroke="none" target-height="5.1142273" target-width="7.0295715" target-x="291.52246" target-y="155.83"></path><path d="M 106.93 133.22 C 106.14 133.22 105.35 133.32 104.58 133.52 C 104.58 133.42 104.58 133.32 104.58 133.22 C 104.69 129.73 102.89 126.45 99.88 124.67 C 96.88 122.89 93.13 122.89 90.13 124.67 C 87.12 126.45 85.32 129.73 85.43 133.22 L 85.43 133.32 C 81.60 133.85 78.46 136.63 77.48 140.38 C 76.50 144.12 77.87 148.09 80.96 150.43 C 84.04 152.77 88.23 153.01 91.57 151.06 C 94.62 152.48 98.19 152.19 100.97 150.29 C 104.25 152.89 108.85 153.06 112.31 150.70 C 115.77 148.34 117.29 144.00 116.07 140.00 C 114.84 135.99 111.16 133.24 106.97 133.22 Z" fill="url(#未命名的渐变_37-4)" fill-rule="nonzero" node-id="292" stroke="none" target-height="29.023155" target-width="39.268417" target-x="77.18305" target-y="123.33053"></path><path d="M 118.00 144.00 C 117.66 143.99 117.33 144.04 117.00 144.12 C 117.00 144.12 117.00 144.04 117.00 144.00 C 117.00 141.87 115.27 140.14 113.14 140.14 C 111.01 140.14 109.28 141.87 109.28 144.00 L 109.28 144.00 C 107.28 144.29 105.84 146.07 105.98 148.09 C 106.12 150.10 107.79 151.67 109.81 151.68 C 110.51 151.69 111.20 151.50 111.81 151.15 C 112.32 151.39 112.87 151.51 113.43 151.51 C 114.20 151.51 114.96 151.28 115.60 150.84 C 116.92 151.93 118.79 152.02 120.21 151.06 C 121.63 150.11 122.25 148.34 121.74 146.71 C 121.23 145.08 119.71 143.98 118.00 144.00 Z" fill="url(#未命名的渐变_37-5)" fill-rule="nonzero" node-id="294" stroke="none" target-height="11.575195" target-width="15.929375" target-x="105.98291" target-y="140.14"></path><path d="M 265.50 169.52 L 180.75 154.22 L 180.75 71.72 L 265.50 82.78 L 265.50 169.52 Z" fill="url(#未命名的渐变_13)" fill-rule="nonzero" node-id="296" stroke="none" target-height="97.8" target-width="84.75" target-x="180.75" target-y="71.72"></path><path d="M 265.50 179.25 L 193.67 197.71 L 193.67 102.58 L 265.50 82.78 L 265.50 179.25 Z" fill="url(#未命名的渐变_13-2)" fill-rule="nonzero" node-id="298" stroke="none" target-height="114.93001" target-width="71.83" target-x="193.67" target-y="82.78"></path><path d="M 180.75 166.84 L 113.32 149.22 L 113.32 85.13 L 180.75 71.72 L 180.75 166.84 Z" fill="url(#未命名的渐变_13-3)" fill-rule="nonzero" node-id="300" stroke="none" target-height="95.119995" target-width="67.43" target-x="113.32" target-y="71.72"></path><path d="M 193.67 197.70 L 113.32 180.09 L 113.32 85.13 L 193.67 102.58 L 193.67 197.70 Z" fill="url(#未命名的渐变_13-4)" fill-rule="nonzero" node-id="302" stroke="none" target-height="112.57" target-width="80.35" target-x="113.32" target-y="85.13"></path><path d="M 285.43 114.39 L 216.38 140.50 L 193.67 102.58 L 265.50 82.78 L 285.43 114.39 Z" fill="url(#未命名的渐变_13-5)" fill-rule="nonzero" node-id="304" stroke="none" target-height="57.72" target-width="91.759995" target-x="193.67" target-y="82.78"></path><path d="M 180.02 139.38 L 97.14 117.92 L 113.32 85.13 L 193.67 102.58 L 180.02 139.38 Z" fill="url(#未命名的渐变_13-6)" fill-rule="nonzero" node-id="306" stroke="none" target-height="54.250008" target-width="96.53" target-x="97.14" target-y="85.13"></path><path d="M 270.00 168.56 C 270.58 166.20 271.20 161.56 267.26 160.67 C 264.34 160.14 261.48 161.89 260.63 164.74 C 259.80 167.26 258.69 178.18 258.47 180.41 C 258.44 180.72 258.38 181.03 258.28 181.33 C 257.59 183.66 256.03 185.64 253.93 186.85 C 250.39 188.66 257.38 199.27 267.41 196.41 C 277.44 193.55 278.12 187.96 277.41 180.34 C 276.82 173.67 271.95 177.75 270.14 172.71 C 269.68 171.37 269.64 169.93 270.00 168.56 Z" fill="url(#未命名的渐变_13-7)" fill-rule="nonzero" node-id="308" stroke="none" target-height="36.25418" target-width="24.607483" target-x="253.00403" target-y="160.59772"></path><path d="M 264.94 189.70 C 265.54 189.34 266.09 188.89 266.56 188.37 C 267.06 187.85 267.50 187.27 267.88 186.65 C 268.28 186.02 268.61 185.35 268.88 184.65 C 269.14 183.95 269.35 183.24 269.50 182.51 C 269.42 183.26 269.29 183.99 269.10 184.72 C 268.91 185.45 268.65 186.16 268.32 186.84 C 267.99 187.53 267.59 188.18 267.12 188.79 C 266.64 189.42 266.08 189.98 265.45 190.45 Z" fill="url(#未命名的渐变_13-8)" fill-rule="nonzero" node-id="310" stroke="none" target-height="7.9400024" target-width="4.5599976" target-x="264.94" target-y="182.51"></path><path d="M 265.00 176.46 C 264.24 178.74 263.90 181.13 264.00 183.53 C 264.06 184.71 264.31 185.87 264.75 186.96 C 265.24 188.09 265.64 189.26 265.94 190.45 C 266.24 191.66 266.43 192.89 266.51 194.13 C 266.58 195.37 266.56 196.61 266.43 197.84 C 266.38 198.45 266.30 199.07 266.20 199.68 C 266.10 200.29 266.03 200.84 265.97 201.43 C 265.91 202.02 265.88 202.60 265.84 203.21 L 265.77 204.12 L 265.77 204.57 L 265.77 204.80 L 265.77 204.91 C 265.77 204.91 265.77 204.99 265.67 205.02 L 264.95 205.02 C 264.81 205.02 264.87 204.95 264.86 204.91 L 264.86 204.57 L 264.86 204.11 L 264.86 203.20 C 264.83 202.58 264.83 201.97 264.86 201.35 C 264.91 200.73 265.00 200.12 265.11 199.51 C 265.21 198.92 265.29 198.33 265.35 197.75 C 265.64 195.40 265.54 193.01 265.08 190.69 C 264.82 189.53 264.49 188.38 264.08 187.26 C 263.67 186.08 263.46 184.83 263.45 183.58 C 263.45 181.12 263.93 178.68 264.88 176.41 Z" fill="url(#未命名的渐变_13-9)" fill-rule="nonzero" node-id="312" stroke="none" target-height="28.61" target-width="3.0599976" target-x="263.45" target-y="176.41"></path><path d="M 254.72 185.56 C 255.08 184.10 255.46 181.22 253.04 180.70 C 251.24 180.38 249.48 181.45 248.95 183.20 C 248.44 184.75 247.76 191.48 247.62 192.85 C 247.60 193.04 247.56 193.23 247.51 193.42 C 247.08 194.85 246.13 196.07 244.83 196.82 C 242.64 197.94 246.95 204.47 253.13 202.70 C 259.31 200.93 259.72 197.50 259.30 192.81 C 258.94 188.71 255.94 191.22 254.82 188.11 C 254.54 187.29 254.50 186.40 254.72 185.56 Z" fill="url(#未命名的渐变_13-10)" fill-rule="nonzero" node-id="314" stroke="none" target-height="22.301086" target-width="15.102936" target-x="244.31442" target-y="180.7"></path><path d="M 251.60 198.57 C 251.97 198.35 252.31 198.07 252.60 197.76 C 252.91 197.44 253.18 197.08 253.41 196.70 C 253.65 196.31 253.84 195.91 254.00 195.48 C 254.16 195.05 254.29 194.62 254.38 194.17 C 254.34 194.63 254.25 195.08 254.13 195.52 C 254.01 195.97 253.86 196.41 253.66 196.83 C 253.45 197.25 253.20 197.65 252.92 198.03 C 252.64 198.41 252.30 198.75 251.92 199.03 Z" fill="url(#未命名的渐变_13-11)" fill-rule="nonzero" node-id="316" stroke="none" target-height="4.8600006" target-width="2.7799988" target-x="251.6" target-y="194.17"></path><path d="M 251.64 190.42 C 251.17 191.82 250.97 193.30 251.04 194.78 C 251.08 195.50 251.24 196.21 251.51 196.88 C 251.81 197.58 252.05 198.30 252.24 199.04 C 252.42 199.78 252.54 200.54 252.59 201.30 C 252.63 202.06 252.62 202.82 252.54 203.58 C 252.54 203.96 252.46 204.34 252.40 204.72 C 252.33 205.08 252.29 205.44 252.26 205.80 C 252.26 206.16 252.20 206.51 252.18 206.89 L 252.18 207.45 L 252.18 207.73 L 252.18 207.94 C 252.18 207.94 252.18 207.99 252.11 208.01 L 251.67 208.01 C 251.59 208.01 251.62 207.96 251.62 207.94 L 251.62 207.45 L 251.62 206.89 C 251.60 206.51 251.60 206.13 251.62 205.75 C 251.65 205.37 251.71 204.99 251.78 204.61 C 251.84 204.25 251.89 203.89 251.93 203.53 C 252.10 202.08 252.05 200.61 251.76 199.18 C 251.61 198.46 251.40 197.76 251.15 197.07 C 250.90 196.34 250.77 195.57 250.76 194.80 C 250.76 193.29 251.06 191.79 251.64 190.39 Z" fill="url(#未命名的渐变_13-12)" fill-rule="nonzero" node-id="318" stroke="none" target-height="17.619995" target-width="1.8300018" target-x="250.76" target-y="190.39"></path><path d="M 348.24 243.43 C 348.60 241.97 348.98 239.09 346.56 238.57 C 344.76 238.25 343.00 239.32 342.47 241.07 C 341.96 242.62 341.28 249.35 341.14 250.72 C 341.12 250.91 341.09 251.10 341.03 251.29 C 340.60 252.72 339.65 253.94 338.35 254.69 C 336.17 255.81 340.47 262.34 346.65 260.58 C 352.83 258.82 353.24 255.37 352.83 250.68 C 352.46 246.58 349.46 249.09 348.35 245.98 C 348.06 245.16 348.03 244.27 348.24 243.43 Z" fill="url(#未命名的渐变_13-13)" fill-rule="nonzero" node-id="320" stroke="none" target-height="22.307709" target-width="15.105713" target-x="337.83734" target-y="238.57"></path><path d="M 345.12 256.44 C 345.49 256.22 345.83 255.95 346.12 255.63 C 346.43 255.31 346.70 254.95 346.93 254.57 C 347.17 254.18 347.36 253.78 347.52 253.35 C 347.68 252.92 347.81 252.49 347.90 252.04 C 347.85 252.50 347.77 252.95 347.66 253.39 C 347.54 253.84 347.38 254.28 347.18 254.70 C 346.97 255.12 346.73 255.53 346.44 255.90 C 346.16 256.28 345.82 256.62 345.44 256.90 Z" fill="url(#未命名的渐变_13-14)" fill-rule="nonzero" node-id="322" stroke="none" target-height="4.8600006" target-width="2.7799988" target-x="345.12" target-y="252.04"></path><path d="M 345.16 248.29 C 344.70 249.70 344.50 251.17 344.56 252.65 C 344.60 253.37 344.76 254.08 345.03 254.75 C 345.33 255.45 345.57 256.17 345.76 256.91 C 345.94 257.65 346.07 258.41 346.12 259.17 C 346.16 259.93 346.14 260.70 346.07 261.46 C 346.07 261.83 345.98 262.21 345.92 262.59 C 345.86 262.97 345.82 263.31 345.78 263.67 C 345.74 264.03 345.78 264.39 345.70 264.76 L 345.70 265.32 L 345.70 265.60 L 345.70 265.81 C 345.70 265.81 345.70 265.86 345.64 265.88 L 345.20 265.88 C 345.11 265.88 345.15 265.83 345.14 265.81 L 345.14 265.32 L 345.14 264.76 C 345.12 264.38 345.12 264.00 345.14 263.62 C 345.17 263.24 345.22 262.86 345.29 262.48 C 345.35 262.12 345.40 261.76 345.44 261.40 C 345.61 259.95 345.56 258.48 345.27 257.05 C 345.12 256.33 344.92 255.63 344.66 254.94 C 344.41 254.21 344.28 253.44 344.28 252.67 C 344.28 251.16 344.57 249.66 345.15 248.26 Z" fill="url(#未命名的渐变_13-15)" fill-rule="nonzero" node-id="324" stroke="none" target-height="17.62001" target-width="1.8399963" target-x="344.28" target-y="248.26"></path><path d="M 69.00 208.49 C 69.28 207.35 69.58 205.10 67.68 204.69 C 66.26 204.44 64.88 205.30 64.48 206.69 C 64.01 209.19 63.68 211.71 63.48 214.24 C 63.47 214.39 63.44 214.54 63.39 214.68 C 63.06 215.81 62.31 216.76 61.29 217.35 C 59.59 218.22 62.95 223.35 67.79 221.95 C 72.63 220.55 72.95 217.88 72.63 214.21 C 72.34 210.99 69.99 212.96 69.12 210.53 C 68.88 209.88 68.84 209.17 69.00 208.49 Z" fill="url(#未命名的渐变_13-16)" fill-rule="nonzero" node-id="326" stroke="none" target-height="17.499756" target-width="11.827431" target-x="60.890694" target-y="204.69"></path><path d="M 66.55 218.68 C 66.84 218.50 67.10 218.29 67.33 218.04 C 67.57 217.79 67.78 217.51 67.96 217.21 C 68.15 216.89 68.31 216.56 68.43 216.21 C 68.56 215.89 68.65 215.55 68.72 215.21 C 68.69 215.57 68.62 215.92 68.53 216.27 C 68.43 216.61 68.31 216.95 68.16 217.27 C 68.00 217.60 67.80 217.91 67.58 218.20 C 67.35 218.50 67.08 218.77 66.77 219.00 Z" fill="url(#未命名的渐变_13-17)" fill-rule="nonzero" node-id="328" stroke="none" target-height="3.7899933" target-width="2.1699982" target-x="66.55" target-y="215.21"></path><path d="M 66.58 212.29 C 66.22 213.39 66.06 214.55 66.11 215.71 C 66.14 216.28 66.26 216.83 66.47 217.36 C 66.71 217.90 66.90 218.46 67.05 219.04 C 67.20 219.62 67.29 220.21 67.32 220.81 C 67.37 221.41 67.37 222.00 67.32 222.60 C 67.32 222.90 67.26 223.19 67.21 223.49 C 67.16 223.79 67.13 224.05 67.10 224.33 C 67.07 224.61 67.10 224.89 67.04 225.19 L 67.04 225.63 L 67.04 225.85 L 67.04 226.00 C 67.04 226.00 67.04 226.00 67.04 226.05 L 66.69 226.05 C 66.62 226.05 66.69 226.05 66.69 225.99 L 66.69 225.17 C 66.67 224.87 66.67 224.57 66.69 224.27 C 66.71 223.97 66.75 223.68 66.81 223.39 C 66.81 223.10 66.90 222.82 66.93 222.54 C 67.06 221.40 67.02 220.25 66.79 219.13 C 66.67 218.57 66.51 218.02 66.31 217.48 C 66.11 216.91 66.02 216.31 66.02 215.71 C 66.01 214.52 66.24 213.35 66.70 212.25 Z" fill="url(#未命名的渐变_13-18)" fill-rule="nonzero" node-id="330" stroke="none" target-height="13.800003" target-width="1.300003" target-x="66.02" target-y="212.25"></path><path d="M 56.84 195.22 C 57.26 193.54 57.70 190.22 54.90 189.61 C 52.82 189.24 50.80 190.48 50.19 192.50 C 49.60 194.29 48.81 202.05 48.65 203.63 C 48.63 203.85 48.59 204.08 48.52 204.29 C 48.03 205.94 46.92 207.35 45.43 208.21 C 42.91 209.50 47.88 217.00 55.00 215.00 C 62.12 213.00 62.61 209.00 62.13 203.59 C 61.71 198.85 58.25 201.74 56.96 198.16 C 56.63 197.21 56.59 196.19 56.84 195.22 Z" fill="url(#未命名的渐变_13-19)" fill-rule="nonzero" node-id="332" stroke="none" target-height="25.697205" target-width="17.491905" target-x="44.770275" target-y="189.61"></path><path d="M 53.24 210.23 C 53.67 209.98 54.06 209.66 54.40 209.29 C 54.75 208.92 55.06 208.51 55.33 208.07 C 55.60 207.63 55.83 207.16 56.01 206.67 C 56.20 206.18 56.35 205.67 56.45 205.15 C 56.40 205.68 56.30 206.20 56.17 206.72 C 56.03 207.23 55.85 207.74 55.62 208.22 C 55.38 208.71 55.09 209.18 54.76 209.61 C 54.42 210.06 54.02 210.46 53.57 210.79 Z" fill="url(#未命名的渐变_13-20)" fill-rule="nonzero" node-id="334" stroke="none" target-height="5.6399994" target-width="3.209999" target-x="53.24" target-y="205.15"></path><path d="M 53.29 200.83 C 52.76 202.44 52.52 204.14 52.60 205.83 C 52.64 206.66 52.82 207.49 53.14 208.26 C 53.49 209.07 53.77 209.90 53.98 210.75 C 54.19 211.61 54.33 212.48 54.39 213.36 C 54.44 214.24 54.42 215.12 54.33 216.00 C 54.33 216.43 54.24 216.87 54.17 217.30 C 54.10 217.73 54.04 218.13 54.00 218.55 C 53.96 218.97 53.94 219.38 53.91 219.81 L 53.91 220.46 L 53.91 220.78 L 53.91 220.94 L 53.91 221.00 C 53.91 221.00 53.91 221.05 53.84 221.08 L 53.33 221.08 C 53.23 221.08 53.27 221.02 53.26 220.99 L 53.26 220.43 L 53.26 219.78 C 53.24 219.34 53.24 218.91 53.26 218.47 C 53.29 218.03 53.35 217.59 53.44 217.16 C 53.51 216.74 53.56 216.32 53.61 215.91 C 53.81 214.24 53.74 212.56 53.41 210.91 C 53.23 210.09 53.00 209.27 52.71 208.48 C 52.42 207.64 52.27 206.75 52.27 205.86 C 52.26 204.11 52.60 202.38 53.27 200.77 Z" fill="url(#未命名的渐变_13-21)" fill-rule="nonzero" node-id="336" stroke="none" target-height="20.309998" target-width="2.119999" target-x="52.27" target-y="200.77"></path></svg>